<svg width="46" height="46" viewBox="0 0 46 46" fill="none" xmlns="http://www.w3.org/2000/svg">
<g clip-path="url(#clip0)">
<path d="M11.4282 22.2121C11.4282 20.693 11.6832 19.1339 12.181 17.559C8.54864 16.1825 4.53368 16.0117 1.92139 16.093L11.9679 26.1395C11.6102 24.8115 11.4282 23.4976 11.4282 22.2121Z" fill="#F2994A"/>
<path d="M34.032 26.1394L44.0786 16.0927C41.4665 16.0116 37.4514 16.1823 33.8188 17.5588C34.3167 19.1338 34.5717 20.6928 34.5717 22.2119C34.5717 23.4974 34.3896 24.8114 34.032 26.1394Z" fill="#F2994A"/>
<path d="M0.0163485 18.0007C-0.103446 21.9131 0.341312 28.9714 4.54688 33.177C8.64461 37.2747 15.4197 37.8061 19.386 37.7196C18.6058 36.9639 0.0163485 18.0007 0.0163485 18.0007Z" fill="#F2994A"/>
<path d="M45.9835 18.0007C45.9835 18.0007 27.3968 36.961 26.6177 37.716C30.5877 37.7988 37.3667 37.2633 41.4531 33.177C45.6584 28.9714 46.1033 21.9135 45.9835 18.0007Z" fill="#F2994A"/>
<path d="M31.8758 22.212C31.8758 16.248 27.1992 10.9489 24.3481 8.27271V35.8235L27.7812 32.3904C29.9287 29.6197 31.8758 26.0496 31.8758 22.212Z" fill="#F2994A"/>
<path d="M14.1245 22.2121C14.1245 26.0407 16.052 29.5951 18.1865 32.3578L21.6521 35.8234V8.27734C18.8009 10.9592 14.1245 16.2647 14.1245 22.2121Z" fill="#F2994A"/>
</g>
<defs>
<clipPath id="clip0">
<rect width="46" height="46" fill="white"/>
</clipPath>
</defs>
</svg>
