<svg xmlns="http://www.w3.org/2000/svg">
    <symbol id="facebook" viewBox="0 0 36 36">
        <g>
            <circle cx="18" cy="18" r="18" fill="CurrentColor" />
            <path fill="white"
                d="M19.125 15.1875V12.9375C19.125 12.3165 19.629 11.8125 20.25 11.8125H21.375V9H19.125C17.2609 9 15.75 10.5109 15.75 12.375V15.1875H13.5V18H15.75V27H19.125V18H21.375L22.5 15.1875H19.125Z" />
        </g>
    </symbol>
    <symbol id="instagram" viewBox="0 0 36 36">
        <g>
            <circle cx="18" cy="18" r="18" fill="CurrentColor" />
            <path fill="white"
                d="M26.9825 14.292C26.9403 13.3356 26.7857 12.6781 26.5641 12.1084C26.3356 11.5036 25.9839 10.9621 25.5232 10.512C25.0731 10.0549 24.5281 9.69969 23.9303 9.4747C23.3573 9.25315 22.7032 9.09848 21.7468 9.05632C20.7832 9.01058 20.4773 9 18.0335 9C15.5897 9 15.2838 9.01058 14.3238 9.05274C13.3674 9.09491 12.7099 9.24971 12.1402 9.47113C11.5353 9.69969 10.9939 10.0513 10.5438 10.512C10.0866 10.9621 9.73157 11.5072 9.50644 12.1049C9.28489 12.6781 9.13022 13.3321 9.08805 14.2885C9.04231 15.252 9.03174 15.5579 9.03174 18.0018C9.03174 20.4456 9.04231 20.7515 9.08448 21.7115C9.12665 22.6679 9.28145 23.3254 9.50301 23.8952C9.73157 24.4999 10.0866 25.0414 10.5438 25.4915C10.9939 25.9486 11.5389 26.3038 12.1367 26.5288C12.7099 26.7504 13.3638 26.905 14.3203 26.9472C15.2802 26.9895 15.5862 26.9999 18.0301 26.9999C20.4739 26.9999 20.7798 26.9895 21.7398 26.9472C22.6962 26.905 23.3537 26.7504 23.9233 26.5288C25.133 26.0611 26.0894 25.1047 26.5571 23.8952C26.7785 23.322 26.9333 22.6679 26.9755 21.7115C27.0177 20.7515 27.0282 20.4456 27.0282 18.0018C27.0282 15.5579 27.0247 15.252 26.9825 14.292ZM25.3616 21.6411C25.3228 22.5202 25.1752 22.9949 25.0521 23.3114C24.7496 24.0956 24.1273 24.7179 23.3431 25.0204C23.0266 25.1434 22.5485 25.2911 21.6729 25.3297C20.7235 25.372 20.4387 25.3824 18.0371 25.3824C15.6354 25.3824 15.3471 25.372 14.4011 25.3297C13.522 25.2911 13.0473 25.1434 12.7309 25.0204C12.3406 24.8761 11.9854 24.6476 11.6971 24.3487C11.3982 24.0568 11.1697 23.7052 11.0255 23.315C10.9024 22.9985 10.7547 22.5202 10.7161 21.6447C10.6738 20.6953 10.6634 20.4104 10.6634 18.0088C10.6634 15.6071 10.6738 15.3188 10.7161 14.373C10.7547 13.4939 10.9024 13.0192 11.0255 12.7027C11.1697 12.3123 11.3982 11.9573 11.7007 11.6688C11.9924 11.3699 12.3441 11.1414 12.7344 10.9973C13.0509 10.8742 13.5292 10.7266 14.4047 10.6878C15.3541 10.6457 15.639 10.6351 18.0405 10.6351C20.4457 10.6351 20.7305 10.6457 21.6764 10.6878C22.5555 10.7266 23.0302 10.8742 23.3467 10.9973C23.7369 11.1414 24.0921 11.3699 24.3804 11.6688C24.6793 11.9607 24.9079 12.3123 25.0521 12.7027C25.1752 13.0192 25.3228 13.4973 25.3616 14.373C25.4037 15.3224 25.4143 15.6071 25.4143 18.0088C25.4143 20.4104 25.4037 20.6917 25.3616 21.6411Z M18.0331 13.3778C15.4804 13.3778 13.4092 15.4489 13.4092 18.0018C13.4092 20.5547 15.4804 22.6257 18.0331 22.6257C20.586 22.6257 22.6571 20.5547 22.6571 18.0018C22.6571 15.4489 20.586 13.3778 18.0331 13.3778ZM18.0331 21.0012C16.377 21.0012 15.0337 19.658 15.0337 18.0018C15.0337 16.3455 16.377 15.0023 18.0331 15.0023C19.6894 15.0023 21.0326 16.3455 21.0326 18.0018C21.0326 19.658 19.6894 21.0012 18.0331 21.0012Z M23.9199 13.195C23.9199 13.7911 23.4365 14.2745 22.8402 14.2745C22.2441 14.2745 21.7607 13.7911 21.7607 13.195C21.7607 12.5987 22.2441 12.1155 22.8402 12.1155C23.4365 12.1155 23.9199 12.5987 23.9199 13.195Z" />
        </g>
    </symbol>
    <symbol id="call" viewBox="0 0 24 24">
        <g>
            <circle cx="12" cy="12" r="12" fill="white" />
            <path fill="#9B51E0"
                d="M19.07 4.92786C15.1642 1.02322 8.83251 1.02416 4.92786 4.93001C1.02322 8.83586 1.02416 15.1675 4.93001 19.0721C8.83587 22.9768 15.1675 22.9758 19.0722 19.07C20.9474 17.1942 22.0006 14.6502 22 11.9979C21.9995 9.3459 20.9455 6.80278 19.07 4.92786ZM17.1447 15.9299L17.1433 15.9312V15.9279L16.6366 16.4312C15.9814 17.0948 15.027 17.3678 14.12 17.1512C13.2061 16.9066 12.3374 16.5172 11.5466 15.9979C10.812 15.5284 10.1313 14.9796 9.51665 14.3612C8.95114 13.7998 8.4431 13.1834 7.99997 12.5212C7.51528 11.8086 7.13165 11.0324 6.85997 10.2145C6.54853 9.25375 6.80661 8.1995 7.52665 7.49122L8.11997 6.8979C8.28493 6.7322 8.55298 6.73161 8.71864 6.89657L8.71997 6.8979L10.5933 8.77122C10.759 8.93618 10.7596 9.20422 10.5946 9.36989L10.5933 9.37122L9.49329 10.4712C9.17767 10.7834 9.13798 11.2795 9.39997 11.6379C9.79782 12.1839 10.2381 12.6977 10.7167 13.1746C11.2502 13.7104 11.8302 14.1979 12.45 14.6312C12.8081 14.881 13.2935 14.8389 13.6033 14.5312L14.6666 13.4512C14.8316 13.2855 15.0996 13.285 15.2653 13.4499L15.2666 13.4512L17.1433 15.3312C17.309 15.4962 17.3096 15.7642 17.1447 15.9299Z" />
        </g>
    </symbol>
    <symbol id="plus" viewBox="0 0 50 50">
        <g>
            <path fill="CurrentColor"
                d="M25 0C11.2142 0 0 11.2142 0 25C0 38.7858 11.2142 50 25 50C38.7858 50 50 38.7839 50 25C50 11.2161 38.7858 0 25 0ZM25 46.1271C13.3521 46.1271 3.87295 36.6499 3.87295 25C3.87295 13.3501 13.3521 3.87295 25 3.87295C36.6479 3.87295 46.1271 13.3501 46.1271 25C46.1271 36.6499 36.6499 46.1271 25 46.1271Z M34.6822 22.8892H26.9363V15.1433C26.9363 14.0744 26.0707 13.2068 24.9998 13.2068C23.9289 13.2068 23.0633 14.0744 23.0633 15.1433V22.8892H15.3174C14.2465 22.8892 13.3809 23.7568 13.3809 24.8257C13.3809 25.8947 14.2465 26.7623 15.3174 26.7623H23.0633V34.5082C23.0633 35.5771 23.9289 36.4447 24.9998 36.4447C26.0707 36.4447 26.9363 35.5771 26.9363 34.5082V26.7623H34.6822C35.7531 26.7623 36.6188 25.8947 36.6188 24.8257C36.6188 23.7568 35.7531 22.8892 34.6822 22.8892Z" />
        </g>
    </symbol>
</svg>