<svg xmlns="http://www.w3.org/2000/svg">
    <symbol id="facebook" viewBox="0 0 36 36">
        <circle cx="18" cy="18" r="18" fill="CurrentColor" />
        <path fill="white"
            d="M19.125 15.1875V12.9375C19.125 12.3165 19.629 11.8125 20.25 11.8125H21.375V9H19.125C17.2609 9 15.75 10.5109 15.75 12.375V15.1875H13.5V18H15.75V27H19.125V18H21.375L22.5 15.1875H19.125Z" />
    </symbol>
    <symbol id="instagram" viewBox="0 0 36 36">
        <circle cx="18" cy="18" r="18" fill="CurrentColor" />
        <path fill="white"
            d="M26.9825 14.292C26.9403 13.3356 26.7857 12.6781 26.5641 12.1084C26.3356 11.5036 25.9839 10.9621 25.5232 10.512C25.0731 10.0549 24.5281 9.69969 23.9303 9.4747C23.3573 9.25315 22.7032 9.09848 21.7468 9.05632C20.7832 9.01058 20.4773 9 18.0335 9C15.5897 9 15.2838 9.01058 14.3238 9.05274C13.3674 9.09491 12.7099 9.24971 12.1402 9.47113C11.5353 9.69969 10.9939 10.0513 10.5438 10.512C10.0866 10.9621 9.73157 11.5072 9.50644 12.1049C9.28489 12.6781 9.13022 13.3321 9.08805 14.2885C9.04231 15.252 9.03174 15.5579 9.03174 18.0018C9.03174 20.4456 9.04231 20.7515 9.08448 21.7115C9.12665 22.6679 9.28145 23.3254 9.50301 23.8952C9.73157 24.4999 10.0866 25.0414 10.5438 25.4915C10.9939 25.9486 11.5389 26.3038 12.1367 26.5288C12.7099 26.7504 13.3638 26.905 14.3203 26.9472C15.2802 26.9895 15.5862 26.9999 18.0301 26.9999C20.4739 26.9999 20.7798 26.9895 21.7398 26.9472C22.6962 26.905 23.3537 26.7504 23.9233 26.5288C25.133 26.0611 26.0894 25.1047 26.5571 23.8952C26.7785 23.322 26.9333 22.6679 26.9755 21.7115C27.0177 20.7515 27.0282 20.4456 27.0282 18.0018C27.0282 15.5579 27.0247 15.252 26.9825 14.292ZM25.3616 21.6411C25.3228 22.5202 25.1752 22.9949 25.0521 23.3114C24.7496 24.0956 24.1273 24.7179 23.3431 25.0204C23.0266 25.1434 22.5485 25.2911 21.6729 25.3297C20.7235 25.372 20.4387 25.3824 18.0371 25.3824C15.6354 25.3824 15.3471 25.372 14.4011 25.3297C13.522 25.2911 13.0473 25.1434 12.7309 25.0204C12.3406 24.8761 11.9854 24.6476 11.6971 24.3487C11.3982 24.0568 11.1697 23.7052 11.0255 23.315C10.9024 22.9985 10.7547 22.5202 10.7161 21.6447C10.6738 20.6953 10.6634 20.4104 10.6634 18.0088C10.6634 15.6071 10.6738 15.3188 10.7161 14.373C10.7547 13.4939 10.9024 13.0192 11.0255 12.7027C11.1697 12.3123 11.3982 11.9573 11.7007 11.6688C11.9924 11.3699 12.3441 11.1414 12.7344 10.9973C13.0509 10.8742 13.5292 10.7266 14.4047 10.6878C15.3541 10.6457 15.639 10.6351 18.0405 10.6351C20.4457 10.6351 20.7305 10.6457 21.6764 10.6878C22.5555 10.7266 23.0302 10.8742 23.3467 10.9973C23.7369 11.1414 24.0921 11.3699 24.3804 11.6688C24.6793 11.9607 24.9079 12.3123 25.0521 12.7027C25.1752 13.0192 25.3228 13.4973 25.3616 14.373C25.4037 15.3224 25.4143 15.6071 25.4143 18.0088C25.4143 20.4104 25.4037 20.6917 25.3616 21.6411Z M18.0331 13.3778C15.4804 13.3778 13.4092 15.4489 13.4092 18.0018C13.4092 20.5547 15.4804 22.6257 18.0331 22.6257C20.586 22.6257 22.6571 20.5547 22.6571 18.0018C22.6571 15.4489 20.586 13.3778 18.0331 13.3778ZM18.0331 21.0012C16.377 21.0012 15.0337 19.658 15.0337 18.0018C15.0337 16.3455 16.377 15.0023 18.0331 15.0023C19.6894 15.0023 21.0326 16.3455 21.0326 18.0018C21.0326 19.658 19.6894 21.0012 18.0331 21.0012Z M23.9199 13.195C23.9199 13.7911 23.4365 14.2745 22.8402 14.2745C22.2441 14.2745 21.7607 13.7911 21.7607 13.195C21.7607 12.5987 22.2441 12.1155 22.8402 12.1155C23.4365 12.1155 23.9199 12.5987 23.9199 13.195Z" />
    </symbol>
    <symbol id="call" viewBox="0 0 24 24">
        <circle cx="12" cy="12" r="12" fill="white" />
        <path fill="#9B51E0"
            d="M19.07 4.92786C15.1642 1.02322 8.83251 1.02416 4.92786 4.93001C1.02322 8.83586 1.02416 15.1675 4.93001 19.0721C8.83587 22.9768 15.1675 22.9758 19.0722 19.07C20.9474 17.1942 22.0006 14.6502 22 11.9979C21.9995 9.3459 20.9455 6.80278 19.07 4.92786ZM17.1447 15.9299L17.1433 15.9312V15.9279L16.6366 16.4312C15.9814 17.0948 15.027 17.3678 14.12 17.1512C13.2061 16.9066 12.3374 16.5172 11.5466 15.9979C10.812 15.5284 10.1313 14.9796 9.51665 14.3612C8.95114 13.7998 8.4431 13.1834 7.99997 12.5212C7.51528 11.8086 7.13165 11.0324 6.85997 10.2145C6.54853 9.25375 6.80661 8.1995 7.52665 7.49122L8.11997 6.8979C8.28493 6.7322 8.55298 6.73161 8.71864 6.89657L8.71997 6.8979L10.5933 8.77122C10.759 8.93618 10.7596 9.20422 10.5946 9.36989L10.5933 9.37122L9.49329 10.4712C9.17767 10.7834 9.13798 11.2795 9.39997 11.6379C9.79782 12.1839 10.2381 12.6977 10.7167 13.1746C11.2502 13.7104 11.8302 14.1979 12.45 14.6312C12.8081 14.881 13.2935 14.8389 13.6033 14.5312L14.6666 13.4512C14.8316 13.2855 15.0996 13.285 15.2653 13.4499L15.2666 13.4512L17.1433 15.3312C17.309 15.4962 17.3096 15.7642 17.1447 15.9299Z" />
    </symbol>
    <symbol id="plus" viewBox="0 0 50 50">
        <path fill="CurrentColor"
            d="M25 0C11.2142 0 0 11.2142 0 25C0 38.7858 11.2142 50 25 50C38.7858 50 50 38.7839 50 25C50 11.2161 38.7858 0 25 0ZM25 46.1271C13.3521 46.1271 3.87295 36.6499 3.87295 25C3.87295 13.3501 13.3521 3.87295 25 3.87295C36.6479 3.87295 46.1271 13.3501 46.1271 25C46.1271 36.6499 36.6499 46.1271 25 46.1271Z M34.6822 22.8892H26.9363V15.1433C26.9363 14.0744 26.0707 13.2068 24.9998 13.2068C23.9289 13.2068 23.0633 14.0744 23.0633 15.1433V22.8892H15.3174C14.2465 22.8892 13.3809 23.7568 13.3809 24.8257C13.3809 25.8947 14.2465 26.7623 15.3174 26.7623H23.0633V34.5082C23.0633 35.5771 23.9289 36.4447 24.9998 36.4447C26.0707 36.4447 26.9363 35.5771 26.9363 34.5082V26.7623H34.6822C35.7531 26.7623 36.6188 25.8947 36.6188 24.8257C36.6188 23.7568 35.7531 22.8892 34.6822 22.8892Z" />
    </symbol>
    <symbol id="culumns1" viewBox="0 0 120 120">
        <circle cx="60" cy="60" r="60" fill="white" />
        <path
            d="M72.9112 67.6273C72.724 67.1079 72.1512 66.8386 71.6319 67.0258C71.1125 67.213 70.8432 67.7858 71.0304 68.3051C71.035 68.3178 71.0399 68.3304 71.045 68.343C71.9567 70.7221 72.0227 72.5414 71.225 73.3411C70.2573 74.3067 67.8473 74.0048 64.7765 72.5354C60.6653 70.4007 56.9284 67.6121 53.7118 64.2786C45.8818 56.4477 42.6511 48.7637 44.6493 46.7655C45.2869 46.2619 46.1157 46.0685 46.9104 46.2377C47.461 46.2781 47.9402 45.8646 47.9806 45.314C48.0198 44.7818 47.634 44.3128 47.1044 44.2484C45.7145 44.0025 44.2886 44.4077 43.2359 45.348C39.5733 49.0096 45.1721 58.5609 52.2983 65.6881C55.6747 69.182 59.5979 72.1022 63.9138 74.3337C64.6954 74.7079 65.5008 75.0302 66.3249 75.2983L59.2226 77.9913C49.7388 74.3857 42.9116 65.978 41.3296 55.9559C41.244 55.4105 40.7325 55.0376 40.1871 55.1232C39.6416 55.2088 39.2688 55.7203 39.3544 56.2657C39.5113 57.2654 39.7212 58.265 39.9781 59.2426C42.28 67.9641 48.3428 75.2094 56.5217 79.0129L44.8322 83.4362C44.7786 83.3467 44.7112 83.2665 44.6323 83.1983C41.6615 80.8131 39.7975 77.315 39.4743 73.519L39.0105 67.9022C38.974 67.3581 38.5032 66.9465 37.9589 66.983C37.9486 66.9837 37.9382 66.9844 37.9279 66.9856C37.3777 67.0293 36.9669 67.511 37.0107 68.0613C37.0108 68.0635 37.011 68.0659 37.0113 68.0682L37.4831 73.683C37.8345 77.7405 39.7272 81.509 42.7721 84.2139L34.4333 87.3706L35.9327 81.217C36.0635 80.6804 35.7347 80.1393 35.198 80.0085C34.6613 79.8777 34.1203 80.2066 33.9895 80.7432L32.0392 88.7401C31.9078 89.2763 32.2359 89.8176 32.7722 89.9489C32.9689 89.9971 33.1754 89.9844 33.3647 89.9126L70.3503 75.9181C70.4092 75.8894 70.4648 75.8545 70.5162 75.8141C71.3167 75.6912 72.0588 75.3211 72.6384 74.7555C73.6289 73.7649 74.4816 71.7227 72.9112 67.6273Z"
            fill="#F2994A" />
        <path
            d="M82.3445 65.0493C76.9407 63.0263 71.1001 62.4591 65.4081 63.4049L61.8365 64.0047C61.2943 64.1089 60.9393 64.6328 61.0435 65.175C61.1443 65.6988 61.6384 66.0512 62.1664 65.9759L65.737 65.3811C71.0826 64.4923 76.5681 65.0254 81.6428 66.9265C81.7554 66.9664 81.8742 66.9864 81.9937 66.9855C82.5457 66.9864 82.994 66.5397 82.9949 65.9875C82.9956 65.5696 82.7362 65.1953 82.3445 65.0493Z"
            fill="#F2994A" />
        <path
            d="M85.8984 49.5624C85.661 49.0638 85.0645 48.8521 84.5659 49.0896L63.5741 59.0857C63.0757 59.323 62.8639 59.9193 63.1012 60.4179C63.1012 60.418 63.1013 60.4182 63.1013 60.4182C63.3386 60.9166 63.935 61.1284 64.4335 60.8911C64.4336 60.8911 64.4337 60.891 64.4338 60.891L85.4256 50.8948C85.9242 50.6574 86.1358 50.0609 85.8984 49.5624Z"
            fill="#F2994A" />
        <path
            d="M56.2876 36.7844C56.1776 36.2434 55.65 35.8939 55.1089 36.0039C54.5679 36.1138 54.2184 36.6415 54.3284 37.1825C54.3307 37.1945 54.3335 37.2064 54.3364 37.2183C55.6016 42.8709 55.0802 48.7771 52.844 54.1207L51.3905 57.6083C51.1805 58.1165 51.4203 58.6989 51.9273 58.9118C52.0488 58.9629 52.1793 58.989 52.3112 58.9888C52.7146 58.9888 53.0785 58.7464 53.2338 58.374L54.6882 54.8904C57.0842 49.1665 57.6431 42.8397 56.2876 36.7844Z"
            fill="#F2994A" />
        <path
            d="M86.9915 65.9861C85.3353 65.9861 83.9927 67.3287 83.9927 68.9849C83.9927 70.6411 85.3353 71.9837 86.9915 71.9837C88.6477 71.9837 89.9903 70.6411 89.9903 68.9849C89.9903 67.3287 88.6477 65.9861 86.9915 65.9861ZM86.9915 69.9845C86.4395 69.9845 85.9919 69.537 85.9919 68.9849C85.9919 68.4329 86.4395 67.9853 86.9915 67.9853C87.5435 67.9853 87.9911 68.4329 87.9911 68.9849C87.9911 69.537 87.5435 69.9845 86.9915 69.9845Z"
            fill="#F2994A" />
        <path
            d="M63.0013 37.9968C61.345 37.9968 60.0024 39.3394 60.0024 40.9957C60.0024 42.6519 61.345 43.9945 63.0013 43.9945C64.6575 43.9945 66.0001 42.6519 66.0001 40.9957C66.0001 39.3394 64.6575 37.9968 63.0013 37.9968ZM63.0013 41.9953C62.4492 41.9953 62.0017 41.5477 62.0017 40.9957C62.0017 40.4436 62.4492 39.996 63.0013 39.996C63.5533 39.996 64.0009 40.4436 64.0009 40.9957C64.0009 41.5477 63.5533 41.9953 63.0013 41.9953Z"
            fill="#F2994A" />
        <path
            d="M54.0046 33.9984C55.1087 33.9984 56.0038 33.1034 56.0038 31.9992C56.0038 30.8951 55.1087 30 54.0046 30C52.9005 30 52.0054 30.8951 52.0054 31.9992C52.0054 33.1034 52.9005 33.9984 54.0046 33.9984Z"
            fill="#F2994A" />
        <path
            d="M81.9938 34.998C81.4417 34.998 80.9941 35.4456 80.9941 35.9977V36.9973C80.9941 37.5493 81.4417 37.9969 81.9938 37.9969C82.5458 37.9969 82.9934 37.5493 82.9934 36.9973V35.9977C82.9934 35.4456 82.5458 34.998 81.9938 34.998Z"
            fill="#F2994A" />
        <path
            d="M81.9938 30C81.4417 30 80.9941 30.4476 80.9941 30.9996V31.9992C80.9941 32.5513 81.4417 32.9988 81.9938 32.9988C82.5458 32.9988 82.9934 32.5513 82.9934 31.9992V30.9996C82.9934 30.4476 82.5458 30 81.9938 30Z"
            fill="#F2994A" />
        <path
            d="M84.9924 32.9988H83.9928C83.4407 32.9988 82.9932 33.4464 82.9932 33.9984C82.9932 34.5504 83.4407 34.998 83.9928 34.998H84.9924C85.5444 34.998 85.992 34.5504 85.992 33.9984C85.992 33.4464 85.5444 32.9988 84.9924 32.9988Z"
            fill="#F2994A" />
        <path
            d="M79.9943 32.9988H78.9947C78.4427 32.9988 77.9951 33.4464 77.9951 33.9984C77.9951 34.5504 78.4427 34.998 78.9947 34.998H79.9943C80.5464 34.998 80.9939 34.5504 80.9939 33.9984C80.9939 33.4464 80.5464 32.9988 79.9943 32.9988Z"
            fill="#F2994A" />
        <path
            d="M74.9962 40.9746H69.9771C69.4251 40.9746 68.9775 41.4222 68.9775 41.9742V46.9933C68.9775 47.5453 69.4251 47.9929 69.9771 47.9929H74.9962C75.5482 47.9929 75.9958 47.5453 75.9958 46.9933V41.9742C75.9958 41.4222 75.5482 40.9746 74.9962 40.9746ZM73.9966 45.9937H70.9768V42.9738H73.9966V45.9937Z"
            fill="#F2994A" />
        <path
            d="M67.7142 49.3221C67.3472 48.9304 66.7364 48.8984 66.3306 49.2496L56.3345 58.2461C55.9244 58.6155 55.8913 59.2473 56.2605 59.6576C56.6299 60.0676 57.2618 60.1008 57.672 59.7315L67.6681 50.735C68.071 50.3576 68.0917 49.725 67.7142 49.3221Z"
            fill="#F2994A" />
        <path
            d="M85.9923 52.991C85.4403 52.991 84.9927 53.4385 84.9927 53.9906V54.9902C84.9927 55.5422 85.4403 55.9898 85.9923 55.9898C86.5443 55.9898 86.9919 55.5422 86.9919 54.9902V53.9906C86.9919 53.4385 86.5443 52.991 85.9923 52.991Z"
            fill="#F2994A" />
        <path
            d="M90.2333 52.8192L89.5265 52.1125C89.1295 51.7289 88.4967 51.7398 88.1131 52.1369C87.739 52.5243 87.739 53.1384 88.1131 53.5259L88.8198 54.2326C89.2169 54.6162 89.8497 54.6052 90.2333 54.2081C90.6075 53.8207 90.6075 53.2065 90.2333 52.8192Z"
            fill="#F2994A" />
        <path
            d="M90.9899 48.9927H89.9903C89.4383 48.9927 88.9907 49.4403 88.9907 49.9923C88.9907 50.5443 89.4383 50.9919 89.9903 50.9919H90.9899C91.542 50.9919 91.9896 50.5443 91.9896 49.9923C91.9896 49.4403 91.542 48.9927 90.9899 48.9927Z"
            fill="#F2994A" />
        <path
            d="M90.2092 45.7518C89.8218 45.3777 89.2077 45.3777 88.8202 45.7518L88.1135 46.4585C87.7231 46.849 87.7233 47.4818 88.1137 47.8722C88.3012 48.0595 88.5553 48.1648 88.8202 48.1648C89.0854 48.1648 89.3395 48.0594 89.5269 47.8719L90.2337 47.1652C90.6173 46.7681 90.6063 46.1352 90.2092 45.7518Z"
            fill="#F2994A" />
        <path
            d="M85.9923 43.9946C85.4403 43.9946 84.9927 44.4422 84.9927 44.9942V45.9938C84.9927 46.5459 85.4403 46.9935 85.9923 46.9935C86.5443 46.9935 86.9919 46.5459 86.9919 45.9938V44.9942C86.9919 44.4422 86.5443 43.9946 85.9923 43.9946Z"
            fill="#F2994A" />
        <path
            d="M83.871 46.4585L83.1643 45.7518C82.7672 45.3683 82.1344 45.3792 81.7508 45.7763C81.3767 46.1637 81.3767 46.7778 81.7508 47.1653L82.4575 47.872C82.8546 48.2556 83.4874 48.2446 83.871 47.8475C84.2452 47.46 84.2452 46.8459 83.871 46.4585Z"
            fill="#F2994A" />
        <path
            d="M43.9593 34.3222C43.8416 33.9605 43.5289 33.6972 43.1526 33.6424L40.2188 33.2156L38.9103 30.5576C38.6187 30.0624 37.9808 29.8974 37.4856 30.189C37.3334 30.2786 37.2066 30.4054 37.117 30.5576L35.8025 33.2156L32.8686 33.6424C32.3222 33.7213 31.9433 34.2282 32.0221 34.7746C32.0535 34.9921 32.1557 35.1932 32.3129 35.3468L34.435 37.416L33.9352 40.3378C33.8393 40.8815 34.2021 41.4 34.7458 41.496C34.9647 41.5346 35.1901 41.4992 35.3867 41.3954L38.0106 40.0119L40.6346 41.3914C41.1233 41.6483 41.7277 41.4605 41.9846 40.9718C42.0869 40.7773 42.1222 40.5545 42.0851 40.3378L41.5852 37.416L43.7084 35.3468C43.9802 35.0807 44.0774 34.6836 43.9593 34.3222ZM39.8099 36.3514C39.5745 36.5807 39.4669 36.911 39.522 37.235L39.77 38.6795L38.4755 37.9967C38.1844 37.8439 37.8368 37.8439 37.5458 37.9967L36.2463 38.6785L36.4942 37.234C36.5503 36.9113 36.4446 36.5814 36.2113 36.3514L35.1607 35.3288L36.6112 35.1178C36.9368 35.0706 37.2183 34.8661 37.3639 34.5711L38.0106 33.2586L38.6584 34.5711C38.8038 34.8658 39.0848 35.0702 39.4101 35.1178L40.8595 35.3288L39.8099 36.3514Z"
            fill="#F2994A" />
        <path
            d="M88.6129 80.1054H88.6089L88.1971 79.4877C85.8879 76.0344 82.2566 73.6863 78.16 72.9972C77.6134 72.9192 77.1071 73.2991 77.0292 73.8456C76.9538 74.3737 77.3063 74.8679 77.8301 74.9684C80.785 75.47 83.4778 76.9712 85.4581 79.2208C83.7932 79.5203 82.337 80.5203 81.4597 81.9667C80.3831 83.8948 81.0735 86.3305 83.0016 87.4071C84.9297 88.4837 87.3654 87.7933 88.442 85.8652C88.8532 85.0714 89.0752 84.1931 89.0907 83.2992C90.1543 84.844 90.2394 86.8613 89.3097 88.4902C89.028 88.965 89.1846 89.5782 89.6594 89.8599C90.1342 90.1415 90.7475 89.985 91.0291 89.5101C91.0381 89.4949 91.0467 89.4795 91.055 89.4638C92.8853 86.1946 91.8072 82.0635 88.6129 80.1054ZM86.6987 84.8896C86.1651 85.8563 84.949 86.2074 83.9823 85.6739C83.0157 85.1403 82.6645 83.9242 83.198 82.9576C83.201 82.9522 83.204 82.9467 83.207 82.9413C83.7969 81.9755 84.7919 81.328 85.914 81.18C86.0878 81.1753 86.2598 81.2153 86.4138 81.296C87.2574 81.7668 87.3024 83.808 86.6987 84.8896Z"
            fill="#F2994A" />
    </symbol>
    <symbol id="culumns2" viewBox="0 0 120 120">
        <circle cx="60" cy="60" r="60" fill="white" />
        <path
            d="M66.0146 67.978C66.0146 73.4971 70.4888 77.9713 76.008 77.9713C81.5267 77.9713 86.0009 73.4971 86.0009 67.978C86.0009 62.4593 81.5267 57.9851 76.008 57.9851C70.4912 57.9912 66.0207 62.4617 66.0146 67.978ZM76.008 59.9835C80.4233 59.9835 84.0024 63.5627 84.0024 67.978C84.0024 72.3933 80.4233 75.9725 76.008 75.9725C71.5926 75.9725 68.0135 72.3933 68.0135 67.978C68.0183 63.5651 71.5947 59.9884 76.008 59.9835Z"
            fill="#F2994A" />
        <path d="M70.2979 87.9646H81.7191V89.963H70.2979V87.9646Z" fill="#F2994A" />
        <path d="M66.0146 83.967H86.0013V85.9659H66.0146V83.967Z" fill="#F2994A" />
        <path d="M44.0298 83.967H46.0286V85.9659H44.0298V83.967Z" fill="#F2994A" />
        <path d="M38.0337 85.9656H40.0321V87.9644H38.0337V85.9656Z" fill="#F2994A" />
        <path
            d="M44.1293 78.3439C49.3473 69.2561 52.6213 59.1834 53.7437 48.7643L63.0375 58.0029C63.2234 58.188 63.4745 58.2924 63.737 58.2936C63.791 58.294 63.8454 58.2896 63.8986 58.2807C64.2155 58.2291 64.488 58.0283 64.6312 57.7413C66.5151 53.9811 65.7773 49.4368 62.8005 46.466L61.9833 45.6484H69.0122C69.5641 45.6488 70.012 45.2017 70.012 44.6498C70.0124 44.5417 69.9947 44.4345 69.9608 44.3325C68.6336 40.3413 64.8989 37.6499 60.6928 37.6539H59.3938L64.3844 32.6343C64.7739 32.2432 64.7723 31.6107 64.3812 31.2212C64.3054 31.1458 64.2183 31.0829 64.1228 31.0354C60.361 29.1494 55.8143 29.8868 52.8414 32.8653L51.8872 33.8195C51.5759 34.1328 51.2869 34.4666 51.0208 34.8189C50.7579 34.4666 50.4709 34.1328 50.1621 33.8195L49.2078 32.8653C46.2374 29.8888 41.6931 29.1514 37.9337 31.0354C37.4398 31.2821 37.2395 31.8824 37.4862 32.3758C37.5338 32.4714 37.5967 32.5585 37.6721 32.6343L42.6683 37.6539H41.3565C37.1504 37.6499 33.4152 40.3413 32.0884 44.3325C31.9135 44.8558 32.1961 45.4218 32.7198 45.5968C32.8218 45.631 32.929 45.6484 33.037 45.6484H40.0591L39.2419 46.466C36.2651 49.4368 35.5273 53.9811 37.4108 57.7413C37.5543 58.0283 37.8269 58.2291 38.1433 58.2807C38.197 58.2896 38.251 58.294 38.3054 58.2936C38.5695 58.2936 38.8227 58.1892 39.0097 58.0029L47.6642 49.3997C46.5926 58.9757 42.986 68.0926 37.2161 75.8097C35.8728 75.4569 34.511 75.1792 33.137 74.9784L32.5125 74.9155L32.3126 76.9051L32.8951 76.9619C33.8945 77.105 34.8875 77.307 35.8752 77.5356C35.6753 77.7863 35.4753 78.0411 35.2685 78.2883L36.8013 79.5703C44.4809 70.4397 49.0591 59.1043 49.8746 47.2013L51.0248 46.0584L51.886 46.9147C50.8353 59.6442 46.466 71.8762 39.2137 82.3903L40.8505 83.5357C41.6362 82.4141 42.3857 81.2502 43.1122 80.0641C47.7867 82.3 51.9142 85.5337 55.2039 89.5374L56.7496 88.2711C54.8044 85.9062 52.5757 83.7893 50.1133 81.9686H91.9966V79.9698H47.1526C46.1729 79.3784 45.1618 78.8426 44.1293 78.3439ZM63.3701 55.5135L52.8116 45.0158C55.5123 44.2095 58.4376 44.9412 60.4404 46.9243L61.3947 47.879C63.3939 49.8746 64.1502 52.7987 63.3701 55.5135ZM67.4875 43.65H59.2132C57.2862 42.7328 55.112 42.4732 53.0232 42.9114C54.4774 40.8666 56.831 39.6523 59.3402 39.6527H60.6892C63.514 39.6483 66.118 41.1794 67.4875 43.65ZM53.297 35.2326L54.2516 34.2783C56.2488 32.2787 59.1741 31.522 61.8901 32.3025L55.9662 38.2614C54.0436 38.969 52.3931 40.2647 51.2486 41.964C50.7837 39.5193 51.5505 37.002 53.3002 35.2326H53.297ZM47.792 34.2783L48.7462 35.2326C49.1913 35.6869 49.5775 36.1957 49.8956 36.7464C49.4429 37.799 49.1844 38.9242 49.132 40.0684C48.235 39.2846 47.2017 38.6727 46.0842 38.2614L40.1591 32.3025C42.8743 31.5224 45.7988 32.2791 47.7948 34.2783H47.792ZM41.3532 39.6527H42.7026C45.2134 39.6503 47.5702 40.8642 49.026 42.9102C46.9385 42.4736 44.7651 42.7332 42.8392 43.65H34.5618C35.9309 41.1807 38.5328 39.6499 41.3565 39.6527H41.3532ZM38.6791 55.5135C37.899 52.7987 38.6558 49.8746 40.655 47.879L41.6092 46.9243C43.0469 45.4903 44.9965 44.6877 47.0276 44.6941C47.777 44.6945 48.5225 44.8014 49.2421 45.0118L38.6791 55.5135Z"
            fill="#F2994A" />
    </symbol>
    <symbol id="culumns3" viewBox="0 0 120 120">
        <circle cx="60" cy="60" r="60" fill="white" />
        <path
            d="M84.1843 34.7988C84.1433 34.2557 83.67 33.8486 83.1268 33.8898C82.5839 33.9308 82.1768 34.4042 82.2178 34.9473C82.4281 37.7323 82.1301 41.7945 79.5157 45.3308C76.8976 48.8721 73.1843 50.104 71.1893 50.766C68.235 51.7461 65.523 52.0014 63.0076 51.9355C63.228 51.4598 63.352 50.9305 63.352 50.3725C63.352 48.6355 62.1583 47.1719 60.5483 46.7589V45.4733H65.8133C67.807 45.4733 69.4289 43.8513 69.4289 41.8577V40.8059C69.4289 40.2612 68.9874 39.8199 68.4429 39.8199H63.6442L65.6172 33.4556C65.7974 32.8746 65.6938 32.2604 65.3328 31.7708C64.9719 31.2812 64.4161 31.0004 63.8078 31.0004H58.5762C58.0316 31.0004 57.5901 31.4417 57.5901 31.9864C57.5901 32.5311 58.0316 32.9724 58.5762 32.9724H63.7024L61.5795 39.82H57.5141L54.609 31.6556C54.4265 31.1425 53.8623 30.8751 53.3495 31.0571C52.8363 31.2397 52.5685 31.8037 52.751 32.3167L55.4209 39.8198H50.7596C50.2151 39.8198 49.7736 40.2611 49.7736 40.8058V41.8576C49.7736 43.8512 51.3955 45.4731 53.3892 45.4731H58.5764V46.7927C57.0274 47.246 55.8922 48.6788 55.8922 50.3725C55.8922 50.6471 55.9228 50.9145 55.9795 51.1723C52.0637 50.6198 48.6586 50.3517 45.8499 52.9504C45.0855 53.6579 43.2813 55.6105 43.0391 58.4552C43.0227 58.6478 42.6804 63.1996 46.3651 65.6687C47.8328 66.6521 49.3547 66.9248 50.591 66.9248C51.0846 66.9248 51.5322 66.8813 51.913 66.8223C52.199 67.6453 52.7744 68.3335 53.5169 68.7655C49.8697 70.7905 47.3954 74.6819 47.3954 79.141C47.3954 81.348 48.0102 83.4918 49.1499 85.3468H46.376C43.8303 85.3468 41.7593 87.418 41.7593 89.9635V90.0141C41.7593 90.5588 42.2007 91.0001 42.7453 91.0001H76.4573C77.0019 91.0001 77.4433 90.5588 77.4433 90.0141V89.9635C77.4433 87.4178 75.3724 85.3468 72.8266 85.3468H51.5576C50.1424 83.5931 49.3674 81.4065 49.3674 79.141C49.3674 73.6893 53.8028 69.254 59.2544 69.254C64.7061 69.254 69.1415 73.6893 69.1415 79.141C69.1415 80.1792 68.9817 81.2013 68.6662 82.1789C68.4991 82.6971 68.7838 83.2528 69.3021 83.4199C69.8205 83.5871 70.376 83.3023 70.5432 82.784C70.9216 81.6105 71.1136 80.3847 71.1136 79.1409C71.1136 74.8155 68.7855 71.0242 65.3171 68.9525C66.5944 68.3941 67.4897 67.1191 67.4897 65.6383C67.4897 64.0112 66.409 62.632 64.9277 62.1799C64.6755 60.5532 63.6929 59.1656 62.3271 58.3613C62.9265 57.6992 63.2921 56.8218 63.2921 55.8605C63.2921 55.1398 63.0861 54.4666 62.7306 53.8955C65.4845 53.9852 68.5213 53.7289 71.81 52.6379C73.8555 51.9592 78.1117 50.547 81.1012 46.5033C84.2331 42.2674 84.3772 37.3517 84.1843 34.7988ZM51.0879 87.3186C51.0921 87.3186 51.0962 87.3193 51.1004 87.3193C51.1053 87.3193 51.1101 87.3188 51.1151 87.3186H72.8269C73.9558 87.3186 74.9219 88.0297 75.3006 89.0278H43.9023C44.2809 88.0298 45.247 87.3186 46.376 87.3186H51.0879ZM53.3891 43.5011C52.483 43.5011 51.7456 42.7638 51.7456 41.8577V41.7919H56.8183H62.3062H67.4569V41.8577C67.4569 42.7639 66.7196 43.5011 65.8134 43.5011H53.3891ZM59.3768 48.6336C59.437 48.6451 59.4989 48.6516 59.5624 48.6516C59.6423 48.6516 59.7197 48.6411 59.7942 48.6231C60.683 48.7099 61.3801 49.461 61.3801 50.3724C61.3801 50.953 61.0958 51.4672 60.6607 51.7874C59.8454 51.709 59.0515 51.6086 58.2767 51.5014C58.0199 51.1958 57.8644 50.802 57.8644 50.3724C57.8642 49.4865 58.5235 48.7536 59.3768 48.6336ZM59.5624 54.1023C60.5318 54.1023 61.3203 54.8908 61.3203 55.8602C61.3203 56.8294 60.5318 57.618 59.5624 57.618C58.5931 57.6181 57.8046 56.8294 57.8046 55.8602C57.8046 54.8909 58.5931 54.1023 59.5624 54.1023ZM51.8031 64.8384C50.8577 65.0107 49.0865 65.118 47.4629 64.03C44.7331 62.2008 45.001 58.6576 45.0041 58.6219C45.1876 56.4644 46.5935 54.9488 47.1893 54.3976C49.5363 52.2257 52.5269 52.6611 56.6661 53.2632C56.7308 53.2727 56.7964 53.2822 56.8616 53.2915C56.2245 53.961 55.8324 54.8654 55.8324 55.8602C55.8324 56.8359 56.2094 57.7248 56.8247 58.39C55.4851 59.1985 54.5238 60.5726 54.2747 62.1794C53.0437 62.5552 52.0903 63.5716 51.8031 64.8384ZM63.8742 63.9948C64.7804 63.9948 65.5176 64.732 65.5176 65.6382C65.5176 66.5444 64.7804 67.2816 63.8742 67.2816H55.3283C54.4221 67.2816 53.6849 66.5444 53.6849 65.6382C53.6849 64.732 54.4221 63.9948 55.3283 63.9948H63.8742ZM62.8741 62.0226H56.3286C56.7528 60.6168 58.0592 59.5903 59.6013 59.5903C61.1434 59.5903 62.4497 60.6171 62.8741 62.0226Z"
            fill="#F2994A" />
    </symbol>
    <symbol id="tile1" viewBox="0 0 74 74">
        <circle cx="37" cy="37" r="37" fill="white" />
        <path
            d="M47.9951 25.9723C47.8264 25.8036 47.6049 25.7192 47.3833 25.7192C47.1618 25.7192 46.9402 25.8035 46.7716 25.9722C46.4342 26.3095 46.4342 26.8585 46.7716 27.1957C47.109 27.5332 47.6578 27.5331 47.995 27.1957V27.1956C48.1584 27.0322 48.2484 26.815 48.2484 26.5839C48.2485 26.353 48.1585 26.1357 47.9951 25.9723Z"
            fill="#F2994A" />
        <path
            d="M33.6723 38.6694C33.4381 38.4351 33.217 38.3218 33.0085 38.3287C32.8002 38.3358 32.5929 38.4422 32.3869 38.6483L31.6914 39.3437L32.998 40.6503L33.6934 39.9548C33.8995 39.7488 34.0059 39.5416 34.013 39.3332C34.0201 39.1249 33.9066 38.9037 33.6723 38.6694Z"
            fill="#F2994A" />
        <path
            d="M56.9419 32.4407L55.0361 21.8997C54.7673 20.4124 53.5874 19.2325 52.1002 18.9636L41.5591 17.0579C40.3843 16.8455 39.1796 17.2227 38.3358 18.0665L18.0668 38.3356C17.3789 39.0235 17 39.9381 17 40.9109C17 41.8837 17.3788 42.7984 18.0668 43.4862L30.5136 55.933C31.2015 56.6209 32.1161 56.9998 33.089 56.9998C34.0618 56.9998 34.9764 56.6209 35.6643 55.933L55.9333 35.664C56.7771 34.82 57.1541 33.615 56.9419 32.4407ZM32.0041 47.2144C31.9549 47.3807 31.8554 47.5387 31.7057 47.6885C31.5557 47.8385 31.3978 47.9379 31.2315 47.987C31.0653 48.0363 30.9285 48.0069 30.8206 47.8991L26.3601 43.4386C26.2525 43.331 26.2161 43.2011 26.2512 43.0489C26.2862 42.8967 26.3694 42.7551 26.5006 42.6239L28.9381 40.1864C29.0458 40.0787 29.1747 40.0436 29.3244 40.0809C29.4744 40.1184 29.6123 40.2003 29.7388 40.3269C29.8746 40.4628 29.9601 40.6068 29.9953 40.7589C30.0303 40.9112 29.9963 41.0387 29.8933 41.1417L28.074 42.961L29.2611 44.1482L30.3218 43.0875C30.4247 42.9846 30.5477 42.9459 30.6906 42.9716C30.8334 42.9974 30.9634 43.0689 31.0804 43.1859C31.1881 43.2936 31.256 43.4178 31.2841 43.5582C31.3121 43.6986 31.2724 43.8228 31.1647 43.9305L30.104 44.9912L31.9163 46.8035C32.0242 46.9113 32.0533 47.0482 32.0041 47.2144ZM37.9749 41.1382C37.9492 41.4075 37.8543 41.6242 37.6904 41.7881C37.5264 41.9521 37.3415 42.0011 37.1354 41.9356L34.3047 41.0295L33.8411 41.4931L35.5339 43.1859C35.6417 43.2937 35.6708 43.4307 35.6217 43.5969C35.5724 43.7633 35.4729 43.9213 35.3232 44.071C35.1732 44.221 35.0153 44.3204 34.8491 44.3695C34.6828 44.4189 34.546 44.3895 34.4382 44.2817L29.9707 39.8142C29.8817 39.7252 29.8361 39.6164 29.8337 39.4875C29.8315 39.3588 29.8795 39.2451 29.9779 39.1468L31.4319 37.6928C32.5839 36.5408 33.6611 36.4658 34.6632 37.4679C35.3936 38.1986 35.5856 38.9572 35.2391 39.7438L37.6484 40.4393C37.7047 40.4487 37.7585 40.4792 37.81 40.5307C37.9457 40.6666 38.0007 40.869 37.9749 41.1382ZM41.8559 37.5383L39.3553 40.0389C39.2241 40.1701 39.0825 40.2532 38.9302 40.2883C38.778 40.3235 38.6482 40.2871 38.5404 40.1793L34.08 35.7189C33.9723 35.6112 33.9359 35.4814 33.9711 35.3292C34.0061 35.1769 34.0893 35.0354 34.2204 34.9041L36.7211 32.4035C36.8288 32.2958 36.9577 32.2607 37.1074 32.298C37.2574 32.3355 37.3954 32.4175 37.5218 32.544C37.6576 32.6799 37.7432 32.8239 37.7783 32.976C37.8133 33.1283 37.7793 33.2558 37.6764 33.3588L35.7938 35.2414L36.981 36.4286L38.0347 35.3748C38.1376 35.2719 38.2607 35.2332 38.4035 35.2589C38.5463 35.2847 38.6764 35.3561 38.7933 35.4731C38.9011 35.5808 38.9689 35.705 38.997 35.8454C39.025 35.9859 38.9853 36.1101 38.8776 36.2178L37.8239 37.2715L39.0179 38.4656L40.9005 36.583C41.0034 36.4801 41.1311 36.4461 41.2833 36.4811C41.4356 36.5164 41.5794 36.6018 41.7153 36.7376C41.8416 36.864 41.9237 37.0022 41.9612 37.152C41.9988 37.3019 41.9635 37.4306 41.8559 37.5383ZM45.6419 33.7522L43.1411 36.253C43.01 36.3842 42.8683 36.4673 42.716 36.5024C42.5639 36.5375 42.4341 36.5012 42.3263 36.3934L37.8658 31.9329C37.7582 31.8253 37.7218 31.6954 37.7569 31.5433C37.792 31.391 37.8751 31.2494 38.0063 31.1182L40.5069 28.6176C40.6146 28.5099 40.7435 28.4747 40.8932 28.5121C41.0431 28.5497 41.1811 28.6315 41.3076 28.7581C41.4434 28.894 41.5289 29.0379 41.5641 29.1901C41.5991 29.3424 41.5651 29.4699 41.4621 29.5729L39.5796 31.4554L40.7668 32.6426L41.8205 31.5889C41.9234 31.486 42.0464 31.4472 42.1892 31.4729C42.3321 31.4987 42.4621 31.5703 42.579 31.6872C42.6867 31.795 42.7546 31.9191 42.7828 32.0595C42.8107 32.2 42.771 32.3242 42.6634 32.4318L41.6096 33.4856L42.8037 34.6797L44.6863 32.7971C44.7892 32.6942 44.9169 32.6603 45.0691 32.6953C45.2214 32.7304 45.3653 32.8158 45.5011 32.9517C45.6274 33.078 45.7095 33.2163 45.7471 33.3661C45.7849 33.5158 45.7496 33.6446 45.6419 33.7522ZM49.6539 28.8544C49.028 29.4804 48.2057 29.7933 47.3835 29.7933C46.5612 29.7933 45.739 29.4804 45.1131 28.8544C43.861 27.6024 43.861 25.5654 45.1131 24.3134C46.3649 23.0615 48.4021 23.0614 49.6539 24.3134C50.2605 24.9199 50.5944 25.7262 50.5944 26.5839C50.5944 27.4415 50.2604 28.2479 49.6539 28.8544Z"
            fill="#F2994A" />
    </symbol>
    <symbol id="tile2" viewBox="0 0 74 74">
        <circle cx="37" cy="37" r="37" fill="white" />
        <path
            d="M57.0597 36.1049C56.9153 36.0745 56.779 36.046 56.6577 36.0145C55.2832 35.657 54.6558 35.4611 54.1919 34.5655L52.4349 31.0082C51.8702 29.9181 50.4121 29.0311 49.1845 29.0311H46.0563V24.9234C46.0563 24.1858 45.4562 23.5857 44.7185 23.5857L22.9309 23.6076C22.2131 23.6076 21.6717 24.178 21.6717 24.9346V26.1487H16.0903C14.9378 26.1488 14 27.0865 14 28.2392C14 29.3919 14.9378 30.3295 16.0903 30.3295H21.6716V32.333H18.0174C16.8648 32.333 15.927 33.2708 15.927 34.4234C15.927 35.576 16.8648 36.5137 18.0174 36.5137H21.6716V38.5172H19.9444C18.7918 38.5172 17.8541 39.455 17.8541 40.6076C17.8541 41.7602 18.7918 42.6979 19.9444 42.6979H21.6716V44.7934C21.6716 45.531 22.2717 46.1311 23.0093 46.1311H25.2757C25.6286 48.5501 27.7165 50.414 30.2322 50.414C32.7481 50.414 34.8361 48.5501 35.1891 46.1311H44.3612C44.4089 46.1311 44.4577 46.1279 44.5064 46.1247C44.8567 48.5468 46.9459 50.414 49.4638 50.414C51.9797 50.414 54.0676 48.5501 54.4207 46.1311H57.676C58.9575 46.1311 60.0001 45.0886 60.0001 43.8072V39.864C60 36.7218 58.2305 36.3505 57.0597 36.1049ZM49.4638 43.5837C50.4683 43.5837 51.2855 44.4006 51.2855 45.4048C51.2855 46.409 50.4683 47.2259 49.4638 47.2259C48.4597 47.2259 47.6427 46.409 47.6427 45.4048C47.6427 44.4006 48.4597 43.5837 49.4638 43.5837ZM46.0563 35.8216V30.9712H48.4468C49.3656 30.9712 50.499 31.6606 50.9197 32.4724L52.4832 35.6379C52.5163 35.702 52.5507 35.763 52.5864 35.8215H46.0563V35.8216ZM32.0539 45.4047C32.0539 46.4088 31.2367 47.2258 30.2322 47.2258C29.2281 47.2258 28.4113 46.4089 28.4113 45.4047C28.4113 44.4005 29.2281 43.5836 30.2322 43.5836C31.2367 43.5837 32.0539 44.4006 32.0539 45.4047Z"
            fill="#F2994A" />
    </symbol>
    <symbol id="tile3" viewBox="0 0 74 74">
        <circle cx="37" cy="37" r="37" fill="white" />
        <path
            d="M53.3177 32.0625H52.4684C52.1926 31.1992 51.8445 30.3606 51.4276 29.5549L52.029 28.9535C53.4872 27.4969 53.4481 25.1625 52.0295 23.7453L50.2552 21.9711C48.8388 20.5529 46.504 20.5118 45.047 21.9705L44.4451 22.5724C43.6394 22.1555 42.8007 21.8074 41.9375 21.5316V20.6823C41.9375 18.6519 40.2856 17 38.2552 17H35.7448C33.7144 17 32.0625 18.6519 32.0625 20.6823V21.5316C31.1993 21.8073 30.3606 22.1555 29.5549 22.5724L28.9536 21.9711C27.4995 20.5152 25.1647 20.5494 23.7455 21.9706L21.971 23.7449C20.5529 25.1615 20.5119 27.496 21.9705 28.9531L22.5724 29.555C22.1555 30.3607 21.8074 31.1992 21.5316 32.0626H20.6823C18.652 32.0625 17 33.7144 17 35.7448V38.2552C17 40.2856 18.652 41.9375 20.6823 41.9375H21.5316C21.8074 42.8008 22.1555 43.6394 22.5724 44.4451L21.971 45.0465C20.5128 46.5031 20.5519 48.8375 21.9705 50.2547L23.7448 52.0289C25.1612 53.4471 27.496 53.4882 28.953 52.0295L29.5549 51.4276C30.3606 51.8445 31.1993 52.1926 32.0625 52.4684V53.3177C32.0625 55.3481 33.7145 57 35.7448 57H38.2552C40.2856 57 41.9376 55.3481 41.9376 53.3177V52.4684C42.8008 52.1927 43.6395 51.8445 44.4452 51.4276L45.0465 52.0289C46.5006 53.4848 48.8353 53.4506 50.2546 52.0294L52.0291 50.255C53.4472 48.8384 53.4882 46.5039 52.0295 45.0468L51.4277 44.4449C51.8446 43.6392 52.1927 42.8007 52.4685 41.9373H53.3177C55.3481 41.9373 57.0001 40.2855 57.0001 38.2551V35.7446C57 33.7144 55.348 32.0625 53.3177 32.0625ZM37 45.7031C32.201 45.7031 28.2969 41.7989 28.2969 37C28.2969 32.2011 32.201 28.2969 37 28.2969C41.799 28.2969 45.7031 32.2011 45.7031 37C45.7031 41.7989 41.799 45.7031 37 45.7031Z"
            fill="#F2994A" />
    </symbol>
    <symbol id="tile4" viewBox="0 0 74 74">
        <circle cx="37" cy="37" r="37" fill="white" />
        <path
            d="M42.2703 37.1294C41.793 37.1294 41.4048 37.5177 41.4048 37.9949V40.8877C41.4048 41.365 41.7931 41.7532 42.2703 41.7532H53.9998V37.1295H42.2703V37.1294ZM43.7299 40.7756C42.993 40.7756 42.3955 40.1782 42.3955 39.4412C42.3955 38.7043 42.9929 38.1068 43.7299 38.1068C44.4668 38.1068 45.0642 38.7042 45.0642 39.4412C45.0642 40.1782 44.4668 40.7756 43.7299 40.7756Z"
            fill="#F2994A" />
        <path
            d="M42.2705 35.1097H54V30.1568C54 28.5658 52.7056 27.2715 51.1146 27.2715H50.7106H28.8787H22.8854C21.2944 27.2715 20 28.5658 20 30.1568V50.7459C20 52.3369 21.2944 53.6313 22.8854 53.6313H51.1146C52.7056 53.6313 53.9999 52.3369 53.9999 50.7459V43.7732H42.2705C40.6794 43.7732 39.3851 42.4789 39.3851 40.8879V37.9951C39.3851 36.4041 40.6796 35.1097 42.2705 35.1097Z"
            fill="#F2994A" />
        <path d="M48.2508 20.3687L34.5474 25.2515H49.9907L48.2508 20.3687Z" fill="#F2994A" />
    </symbol>
    <symbol id="tile5" viewBox="0 0 74 74">
        <circle cx="37" cy="37" r="37" fill="white" />
        <path
            d="M40.826 33.6113C42.3059 32.7569 43.9464 32.2225 45.6335 32.0355C45.6409 32.0229 45.6487 32.0106 45.6561 31.9979C48.413 27.2227 46.7711 21.0948 41.9959 18.3377C37.2207 15.5808 31.0927 17.2228 28.3357 21.998C26.4808 25.2111 26.6173 29.0363 28.3598 32.0352C30.0477 32.2219 31.689 32.7565 33.1695 33.6113C34.6746 34.4803 35.9536 35.6325 36.9517 36.9954C36.9608 36.9954 36.97 36.9959 36.979 36.9959C37.0008 36.9959 37.0224 36.9949 37.0441 36.9949C38.0422 35.6322 39.3211 34.4802 40.826 33.6113ZM36.7225 32.1489L35.9989 32.6244C35.8005 32.7547 35.5772 32.8171 35.3564 32.8171C34.975 32.8171 34.6011 32.6312 34.3759 32.2887C34.0455 31.7859 34.1527 31.1231 34.6037 30.7466C34.1527 30.3701 34.0455 29.7074 34.3759 29.2046C34.7313 28.6638 35.4577 28.5132 35.9988 28.8688L36.7224 29.3444L37.446 28.8688C37.9869 28.5134 38.7134 28.6638 39.0689 29.2046C39.3993 29.7073 39.2921 30.3701 38.8411 30.7466C39.2921 31.1231 39.3993 31.7858 39.0689 32.2887C38.8438 32.6311 38.4698 32.8171 38.0884 32.8171C37.8676 32.8171 37.6443 32.7548 37.4459 32.6244L36.7225 32.1489Z"
            fill="#F2994A" />
        <path
            d="M35.6886 39.3601C34.8399 37.8615 33.5943 36.5627 31.9979 35.641C27.2227 32.884 21.0947 34.526 18.3377 39.3012C15.5808 44.0764 17.2228 50.2043 21.998 52.9614C23.5689 53.8684 25.2855 54.2992 26.981 54.2992C30.4394 54.2992 33.808 52.5054 35.658 49.3012C35.6683 49.2833 35.678 49.2652 35.6882 49.2472C34.5657 46.6913 34.3452 43.8485 35.0796 41.1077C35.2411 40.5052 35.445 39.9217 35.6886 39.3601ZM26.6712 48.547C26.8293 49.0805 26.5892 49.6669 26.0745 49.9256C25.9057 50.0104 25.726 50.0508 25.549 50.0508C25.12 50.0508 24.7069 49.8143 24.5011 49.405L24.1529 48.7122L23.3789 48.757C23.3558 48.7583 23.3329 48.759 23.3101 48.759C22.6939 48.759 22.1773 48.2778 22.1413 47.6548C22.1081 47.0797 22.4958 46.5785 23.0369 46.4487C22.8787 45.9151 23.1189 45.3288 23.6336 45.0701C24.2117 44.7794 24.9161 45.0125 25.2069 45.5908L25.5551 46.2835L26.3291 46.2388C26.9762 46.2028 27.5293 46.6949 27.5667 47.341C27.6 47.916 27.2124 48.4172 26.6712 48.547Z"
            fill="#F2994A" />
        <path
            d="M52.8295 33.4321C52.9035 33.3614 52.9769 33.2899 53.0495 33.2173C55.8808 30.386 57.2996 26.4721 56.9419 22.4792C56.8998 22.0087 56.5269 21.6358 56.0564 21.5937C53.4734 21.3622 50.9241 21.8752 48.6789 23.032C49.6512 25.9016 49.5714 29.1137 48.2686 32.0279C49.8803 32.1973 51.4281 32.6808 52.8295 33.4321Z"
            fill="#F2994A" />
        <path
            d="M55.6586 39.3009C52.9016 34.5257 46.7737 32.8838 41.9984 35.6407C37.2232 38.3977 35.5813 44.5256 38.3382 49.3009C40.1884 52.5054 43.5564 54.2988 47.0152 54.2988C48.7104 54.2988 50.4277 53.8679 51.9983 52.961C56.7736 50.2041 58.4155 44.0762 55.6586 39.3009ZM51.855 47.6545C51.819 48.2776 51.3024 48.7588 50.6862 48.7588C50.6634 48.7588 50.6406 48.7581 50.6174 48.7568L49.8435 48.712L49.4953 49.4048C49.2895 49.8141 48.8763 50.0505 48.4473 50.0505C48.2704 50.0505 48.0907 50.0103 47.9218 49.9254C47.4072 49.6666 47.167 49.0803 47.3251 48.5468C46.784 48.417 46.3963 47.9158 46.4296 47.3407C46.467 46.6946 47.0214 46.2016 47.6672 46.2385L48.4411 46.2832L48.7893 45.5905C49.08 45.0123 49.7845 44.7792 50.3627 45.0698C50.8774 45.3286 51.1175 45.9149 50.9594 46.4484C51.5006 46.5783 51.8882 47.0795 51.855 47.6545Z"
            fill="#F2994A" />
    </symbol>
    <symbol id="tile6" viewBox="0 0 74 74">
        <circle cx="37" cy="37" r="37" fill="white" />
        <path
            d="M25.4282 36.2121C25.4282 34.693 25.6832 33.1339 26.181 31.559C22.5486 30.1825 18.5337 30.0117 15.9214 30.093L25.9679 40.1395C25.6102 38.8115 25.4282 37.4976 25.4282 36.2121Z"
            fill="#F2994A" />
        <path
            d="M48.032 40.1394L58.0786 30.0927C55.4665 30.0116 51.4514 30.1823 47.8188 31.5588C48.3167 33.1338 48.5717 34.6928 48.5717 36.2119C48.5717 37.4974 48.3896 38.8114 48.032 40.1394Z"
            fill="#F2994A" />
        <path
            d="M14.0163 32.0007C13.8966 35.9131 14.3413 42.9714 18.5469 47.177C22.6446 51.2747 29.4197 51.8061 33.386 51.7196C32.6058 50.9639 14.0163 32.0007 14.0163 32.0007Z"
            fill="#F2994A" />
        <path
            d="M59.9835 32.0007C59.9835 32.0007 41.3968 50.961 40.6177 51.716C44.5877 51.7988 51.3667 51.2633 55.4531 47.177C59.6584 42.9714 60.1033 35.9135 59.9835 32.0007Z"
            fill="#F2994A" />
        <path
            d="M45.8758 36.212C45.8758 30.248 41.1992 24.9489 38.3481 22.2727V49.8235L41.7812 46.3904C43.9287 43.6197 45.8758 40.0496 45.8758 36.212Z"
            fill="#F2994A" />
        <path
            d="M28.1245 36.2121C28.1245 40.0407 30.052 43.5951 32.1865 46.3578L35.6521 49.8234V22.2773C32.8009 24.9592 28.1245 30.2647 28.1245 36.2121Z"
            fill="#F2994A" />
    </symbol>
    <symbol id="tile7" viewBox="0 0 74 74">
        <circle cx="37" cy="37" r="37" fill="white" />
        <path
            d="M46.6238 17H36.1954C35.5389 17 35.0068 17.5322 35.0068 18.1885V19.0138C35.0068 20.8099 36.1945 22.3338 37.8257 22.8415V24.6185C37.8257 26.1782 38.8275 27.5075 40.2211 27.999V29.1169C40.609 29.0591 41.0058 29.0287 41.4096 29.0287C41.8133 29.0287 42.2102 29.059 42.5981 29.1169V27.999C43.9916 27.5076 44.9933 26.1781 44.9933 24.6185V22.8415C46.6246 22.3339 47.8123 20.8099 47.8123 19.0138V18.1885C47.8123 17.5322 47.2801 17 46.6238 17Z"
            fill="#F2994A" />
        <path
            d="M30.1592 30.9621L30.1454 30.9758C29.1684 31.9529 28.6684 33.3049 28.774 34.6851C28.9 36.3343 29.0742 39.5687 28.8242 42.7013C28.4727 47.1039 27.4899 49.0093 26.7273 49.8325C26.2326 50.3664 25.6871 50.615 25.0103 50.615C24.3031 50.615 22.1511 50.615 21.9192 45.0101C21.8461 43.2415 22.0091 41.4232 22.4037 39.606L23.7208 33.5406L24.1337 33.6303C24.2186 33.6487 24.3035 33.6576 24.387 33.6576C24.934 33.6576 25.4265 33.2775 25.5473 32.7211C25.6866 32.0796 25.2795 31.4467 24.638 31.3074L24.2251 31.2178L26.336 21.497C26.4753 20.8556 26.0682 20.2226 25.4267 20.0833C24.7855 19.9437 24.1522 20.3511 24.013 20.9926L21.9022 30.7134L21.4614 30.6177C20.8205 30.4783 20.187 30.8855 20.0477 31.527C19.9084 32.1685 20.3155 32.8014 20.957 32.9407L21.3977 33.0364L20.0806 39.1017C19.643 41.1168 19.4624 43.1376 19.544 45.1085C19.6399 47.427 20.046 49.1874 20.7855 50.4903C21.7147 52.1271 23.1754 52.9922 25.01 52.9922C26.3572 52.9922 27.5215 52.4727 28.4708 51.4482C31.6605 48.0053 31.5147 39.3544 31.1439 34.5041C31.0914 33.8163 31.34 33.143 31.826 32.6569L31.8397 32.6431C32.6659 31.8169 33.9589 31.7349 34.878 32.3967C35.3437 31.7454 35.9043 31.1667 36.5394 30.6802C34.6832 29.1244 31.9036 29.2176 30.1592 30.9621Z"
            fill="#F2994A" />
        <path
            d="M48.0572 45.6516C48.4532 44.8562 48.659 43.9953 48.659 43.1141C48.659 41.5141 47.9802 39.9972 46.7689 38.8357C46.9587 38.2632 47.0571 37.6601 47.0571 37.0533C47.0571 33.9393 44.5237 31.406 41.4098 31.406C38.2959 31.406 35.7625 33.9394 35.7625 37.0533C35.7625 37.6601 35.8608 38.2633 36.0507 38.8357C34.8394 39.9972 34.1605 41.5141 34.1605 43.1141C34.1605 43.9952 34.3664 44.8563 34.7624 45.6516C33.2139 47.1027 32.3447 49.0105 32.3447 51.0217C32.3447 53.1968 33.3369 55.2221 35.1386 56.7244C35.3522 56.9026 35.6217 57.0001 35.8998 57.0001H46.9201C47.1983 57.0001 47.4676 56.9026 47.6813 56.7244C49.4829 55.2221 50.4751 53.1968 50.4751 51.0217C50.4748 49.0102 49.6056 47.1027 48.0572 45.6516Z"
            fill="#F2994A" />
    </symbol>
    <symbol id="tile8" viewBox="0 0 74 74">
        <circle cx="37" cy="37" r="37" fill="white" />
        <path
            d="M29.6855 35.1797C30.1563 35.0856 30.637 35.2873 30.8992 35.6886L31.2388 36.2084C32.6044 32.6299 35.9466 29.5885 36.1263 29.4269C36.5633 29.0336 37.2245 29.024 37.6728 29.4044C37.8466 29.5518 41.6282 32.7918 42.9838 36.5074L49.5824 35.1275C51.1191 27.452 46.6875 17.8516 34.6193 15.0323C33.6409 14.804 32.8477 15.8308 33.3109 16.7157C34.6762 19.3246 35.6197 21.5802 34.2818 24.0473L31.3542 20.3992C30.9088 19.8442 30.0791 19.8131 29.5913 20.3196C27.52 22.4703 24.0449 26.8612 24.0449 32.1047C24.0449 33.5338 24.2299 34.904 24.5948 36.1958L29.6855 35.1797Z"
            fill="#F2994A" />
        <path d="M31.0898 43.1255H42.8315V55H31.0898V43.1255Z" fill="#F2994A" />
        <path
            d="M28.7417 41.9534C28.7417 41.3062 29.2674 40.7816 29.9159 40.7816H31.424L29.3666 37.6333L17.9913 39.9038L17.0091 47.7453C16.9701 48.0567 17.0578 48.3706 17.2526 48.6167L21.9492 54.554C22.2612 54.9484 22.7902 55.1003 23.2645 54.9319L28.7417 52.9866V41.9534Z"
            fill="#F2994A" />
        <path
            d="M56.7814 44.4754L51.5155 37.1179L42.1217 39.0822L41.2114 40.7817H44.0059C44.6543 40.7817 45.18 41.3064 45.18 41.9535V53.5632L46.8342 54.7732C47.3099 55.1211 47.9703 55.063 48.3775 54.6374L56.6751 45.9659C57.0645 45.559 57.1091 44.9333 56.7814 44.4754Z"
            fill="#F2994A" />
        <path
            d="M36.9333 31.9158C35.4166 33.4939 33.0889 36.438 33.0151 38.9264L34.2276 40.7817H38.5486L40.3089 37.4951C40.4005 37.3241 40.5329 37.1819 40.6904 37.0762C39.85 34.9675 37.9934 32.953 36.9333 31.9158Z"
            fill="#F2994A" />
    </symbol>
    <symbol id="right" viewBox="0 0 14 24">
        <path d="M1.64706 24L2.72115e-06 22.4L12.3529 10.4001L14 12L1.64706 24Z" fill="#F2994A" />
        <path d="M-1.0046e-06 1.59999L1.64706 1.07993e-06L14 12L12.3529 13.5999L-1.0046e-06 1.59999Z" fill="#F2994A" />
    </symbol>
    <symbol id="left" viewBox="0 0 14 24">
        <path d="M12.3529 0L14 1.59999L1.64706 13.5999L0 12L12.3529 0Z" fill="#F2994A" />
        <path d="M14 22.4L12.3529 24L0 12L1.64706 10.4001L14 22.4Z" fill="#F2994A" />
    </symbol>
    <symbol id="thanks" width="114px" height="86px" fill="none" viewBox="0 0 114 86">
        <path d="M0 38.3692L18.3448 19.8462L65.5173 67.4769L47.1724 86L0 38.3692Z" fill="#F2994A" />
        <path d="M95.6552 0L114 18.5231L47.1724 86L28.8276 67.4769L95.6552 0Z" fill="#F2994A" />
    </symbol>
    <symbol id="close" width="36" height="36" fill="none" viewBox="0 0 36 36">
        <path d="M0.606602 7.67758L7.67767 0.60651L35.9619 28.8908L28.8909 35.9618L0.606602 7.67758Z"
            fill="CurrentColor" />
        <path d="M28.8909 0.60651L35.9619 7.67758L7.67767 35.9618L0.6066 28.8908L28.8909 0.60651Z"
            fill="CurrentColor" />
    </symbol>
    <symbol id="chevron-left" width="8" height="12" viewBox="0 0 8 12" fill="none">
        <path d="M7.07084 9.89938L5.65662 11.3136L-0.000231743 5.65674L1.41398 4.24252L7.07084 9.89938Z"
            fill="#F2994A" />
        <path d="M1.41398 7.07095L-0.000231743 5.65674L5.65662 -0.000115534L7.07084 1.4141L1.41398 7.07095Z"
            fill="#F2994A" />
    </symbol>
    <symbol id="star" width="8" height="9" viewBox="0 0 8 9" fill="none">
        <path
            d="M5.09942 4.5L8 6.24033L7.46199 7.28453L4.53801 5.46961V9H3.46199L3.48538 5.46961L0.561404 7.28453L0 6.24033L2.92398 4.5L0 2.75967L0.561404 1.69061L3.48538 3.53039L3.46199 0H4.53801V3.53039L7.46199 1.69061L8 2.75967L5.09942 4.5Z"
            fill="#F2994A" />
    </symbol>
    <symbol id="why1" width="74" height="74" viewBox="0 0 74 74" fill="none">
        <path
            d="M48.6238 17H38.1954C37.5389 17 37.0068 17.5322 37.0068 18.1885V19.0138C37.0068 20.8099 38.1945 22.3338 39.8257 22.8415V24.6185C39.8257 26.1782 40.8275 27.5075 42.2211 27.999V29.1169C42.609 29.0591 43.0058 29.0287 43.4096 29.0287C43.8133 29.0287 44.2102 29.059 44.5981 29.1169V27.999C45.9916 27.5076 46.9933 26.1781 46.9933 24.6185V22.8415C48.6246 22.3339 49.8123 20.8099 49.8123 19.0138V18.1885C49.8123 17.5322 49.2801 17 48.6238 17Z"
            fill="#9B51E0" />
        <path
            d="M32.1597 30.9618L32.1459 30.9756C31.1689 31.9526 30.6689 33.3046 30.7744 34.6849C30.9005 36.334 31.0747 39.5685 30.8247 42.701C30.4732 47.1036 29.4904 49.009 28.7278 49.8322C28.2331 50.3661 27.6876 50.6147 27.0108 50.6147C26.3036 50.6147 24.1516 50.6147 23.9197 45.0099C23.8465 43.2413 24.0096 41.423 24.4042 39.6057L25.7213 33.5403L26.1342 33.63C26.2191 33.6485 26.304 33.6574 26.3875 33.6574C26.9345 33.6574 27.427 33.2773 27.5478 32.7208C27.6871 32.0793 27.28 31.4464 26.6385 31.3071L26.2256 31.2175L28.3365 21.4968C28.4758 20.8553 28.0687 20.2224 27.4272 20.0831C26.786 19.9435 26.1527 20.3508 26.0135 20.9924L23.9026 30.7132L23.4619 30.6175C22.821 30.4781 22.1875 30.8853 22.0482 31.5268C21.9089 32.1682 22.316 32.8011 22.9575 32.9404L23.3982 33.0361L22.0811 39.1014C21.6435 41.1165 21.4629 43.1374 21.5444 45.1082C21.6404 47.4268 22.0465 49.1871 22.786 50.49C23.7151 52.1268 25.1759 52.992 27.0105 52.992C28.3577 52.992 29.522 52.4725 30.4713 51.4479C33.661 48.005 33.5152 39.3542 33.1444 34.5039C33.0919 33.816 33.3405 33.1428 33.8265 32.6567L33.8402 32.6428C34.6664 31.8167 35.9594 31.7346 36.8785 32.3964C37.3442 31.7451 37.9048 31.1664 38.5399 30.68C36.6837 29.1242 33.9041 29.2174 32.1597 30.9618Z"
            fill="#9B51E0" />
        <path
            d="M50.0572 45.6514C50.4532 44.8559 50.659 43.9951 50.659 43.1139C50.659 41.5139 49.9802 39.9969 48.7689 38.8354C48.9587 38.2629 49.0571 37.6599 49.0571 37.053C49.0571 33.939 46.5237 31.4058 43.4098 31.4058C40.2959 31.4058 37.7625 33.9392 37.7625 37.053C37.7625 37.6599 37.8608 38.263 38.0507 38.8354C36.8394 39.9969 36.1605 41.5139 36.1605 43.1139C36.1605 43.995 36.3664 44.8561 36.7624 45.6514C35.2139 47.1025 34.3447 49.0102 34.3447 51.0215C34.3447 53.1965 35.3369 55.2219 37.1386 56.7242C37.3522 56.9023 37.6217 56.9999 37.8998 56.9999H48.9201C49.1983 56.9999 49.4676 56.9024 49.6813 56.7242C51.4829 55.2219 52.4751 53.1965 52.4751 51.0215C52.4748 49.01 51.6056 47.1025 50.0572 45.6514Z"
            fill="#9B51E0" />
    </symbol>
    <symbol id="why2" width="74" height="74" viewBox="0 0 74 74" fill="none">
        <path
            d="M29.6855 33.1797C30.1563 33.0856 30.637 33.2873 30.8992 33.6886L31.2388 34.2084C32.6044 30.6299 35.9466 27.5885 36.1263 27.4269C36.5633 27.0336 37.2245 27.024 37.6728 27.4044C37.8466 27.5518 41.6282 30.7918 42.9838 34.5074L49.5824 33.1275C51.1191 25.452 46.6875 15.8516 34.6193 13.0323C33.6409 12.804 32.8477 13.8308 33.3109 14.7157C34.6762 17.3246 35.6197 19.5802 34.2818 22.0473L31.3542 18.3992C30.9088 17.8442 30.0791 17.8131 29.5913 18.3196C27.52 20.4703 24.0449 24.8612 24.0449 30.1047C24.0449 31.5338 24.2299 32.904 24.5948 34.1958L29.6855 33.1797Z"
            fill="#9B51E0" />
        <path d="M31.0898 41.1255H42.8315V53H31.0898V41.1255Z" fill="#9B51E0" />
        <path
            d="M28.7417 39.9534C28.7417 39.3062 29.2674 38.7816 29.9159 38.7816H31.424L29.3666 35.6333L17.9913 37.9038L17.0091 45.7453C16.9701 46.0567 17.0578 46.3706 17.2526 46.6167L21.9492 52.554C22.2612 52.9484 22.7902 53.1003 23.2645 52.9319L28.7417 50.9866V39.9534Z"
            fill="#9B51E0" />
        <path
            d="M56.7809 42.4757L51.515 35.1182L42.1212 37.0825L41.2109 38.782H44.0054C44.6538 38.782 45.1795 39.3067 45.1795 39.9538V51.5635L46.8338 52.7735C47.3094 53.1214 47.9699 53.0632 48.377 52.6376L56.6746 43.9661C57.064 43.5593 57.1086 42.9336 56.7809 42.4757Z"
            fill="#9B51E0" />
        <path
            d="M36.9328 29.916C35.4161 31.4941 33.0884 34.4382 33.0146 36.9266L34.2271 38.782H38.5482L40.3084 35.4953C40.4 35.3243 40.5324 35.1822 40.6899 35.0765C39.8496 32.9677 37.9929 30.9532 36.9328 29.916Z"
            fill="#9B51E0" />
    </symbol>
    <symbol id="why3" width="74" height="74" viewBox="0 0 74 74" fill="none">
        <path
            d="M25.4287 34.2121C25.4287 32.693 25.6836 31.1339 26.1815 29.559C22.5491 28.1825 18.5342 28.0117 15.9219 28.093L25.9683 38.1395C25.6107 36.8115 25.4287 35.4976 25.4287 34.2121Z"
            fill="#9B51E0" />
        <path
            d="M48.0325 38.1391L58.0791 28.0925C55.467 28.0113 51.4519 28.1821 47.8193 29.5586C48.3172 31.1335 48.5722 32.6926 48.5722 34.2117C48.5722 35.4972 48.3901 36.8111 48.0325 38.1391Z"
            fill="#9B51E0" />
        <path
            d="M14.0163 30.0005C13.8966 33.9128 14.3413 40.9712 18.5469 45.1767C22.6446 49.2745 29.4197 49.8059 33.386 49.7193C32.6058 48.9636 14.0163 30.0005 14.0163 30.0005Z"
            fill="#9B51E0" />
        <path
            d="M59.984 30.0005C59.984 30.0005 41.3973 48.9607 40.6182 49.7157C44.5882 49.7986 51.3672 49.263 55.4536 45.1767C59.6589 40.9712 60.1038 33.9133 59.984 30.0005Z"
            fill="#9B51E0" />
        <path
            d="M45.8753 34.2118C45.8753 28.2477 41.1987 22.9486 38.3477 20.2725V47.8232L41.7807 44.3902C43.9282 41.6194 45.8753 38.0493 45.8753 34.2118Z"
            fill="#9B51E0" />
        <path
            d="M28.124 34.2116C28.124 38.0402 30.0515 41.5946 32.186 44.3573L35.6516 47.8229V20.2769C32.8004 22.9587 28.124 28.2642 28.124 34.2116Z"
            fill="#9B51E0" />
    </symbol>
    <symbol id="why4" width="74" height="74" viewBox="0 0 74 74" fill="none">
        <path
            d="M37 17C25.9716 17 17 25.9716 17 37C17 48.0284 25.9716 57 37 57C48.0284 57 57 48.0284 57 37C57 25.9716 48.0284 17 37 17ZM46.5117 47.3448C46.1867 47.6699 45.7601 47.8334 45.3334 47.8334C44.9068 47.8334 44.4799 47.6699 44.1552 47.3448L35.8217 39.0117C35.5083 38.7001 35.3334 38.2766 35.3334 37.8334V27C35.3334 26.0784 36.0799 25.3334 37 25.3334C37.9201 25.3334 38.6666 26.0784 38.6666 27V37.1434L46.5117 44.9883C47.1633 45.6401 47.1633 46.6933 46.5117 47.3448Z"
            fill="#9B51E0" />
    </symbol>


</svg>